<svg xmlns="http://www.w3.org/2000/svg"  viewBox="0 0 64 64" width="64px" height="64px"><path fill="#fd3c4f" d="M16.431,29.989c-2.443,0-4.442,1.965-4.442,4.366v15.28c0,2.401,1.999,4.366,4.442,4.366h31.094	c2.443,0,4.442-1.965,4.442-4.366v-15.28c0-2.401-1.999-4.366-4.442-4.366H16.431z"/><path d="M51.966,49.634v-12.41c-2.761,0-5,2.239-5,5V49h-6.259c-2.762,0-5,2.239-5,5h11.816 C49.967,54,51.966,52.035,51.966,49.634z" opacity=".15"/><path fill="#fff" d="M11.989,34.354v11.657c2.761,0,5-2.239,5-5v-6.022h7.136c2.762,0,5-2.239,5-5H16.431 C13.988,29.989,11.989,31.953,11.989,34.354z" opacity=".3"/><path fill="#9c34c2" d="M18.278,11.267l2.903,10.49v4.636c0,0.552,0.448,1,1,1h0.818c0.552,0,1-0.448,1-1v-4.636l2.94-10.487	c0.179-0.638-0.301-1.27-0.963-1.27h-0.72c-0.469,0-0.875,0.326-0.976,0.784l-1.008,4.566c-0.332,1.562-0.543,2.673-0.64,3.335	h-0.086c-0.139-0.928-0.35-2.046-0.64-3.357l-0.969-4.537C20.838,10.33,20.43,10,19.959,10h-0.717	C18.581,10,18.102,10.63,18.278,11.267z M30.582,14.44c-0.955,0-1.725,0.187-2.312,0.568c-0.587,0.376-1.021,0.983-1.298,1.813	c-0.275,0.829-0.411,1.927-0.411,3.296v1.848c0,1.353,0.119,2.438,0.361,3.254c0.242,0.816,0.651,1.417,1.225,1.804	c0.572,0.385,1.362,0.579,2.369,0.579c0.981,0,1.762-0.191,2.334-0.572c0.572-0.381,0.986-0.977,1.241-1.8	c0.255-0.823,0.383-1.91,0.383-3.265v-1.848c0-1.366-0.13-2.46-0.392-3.282c-0.262-0.821-0.678-1.426-1.245-1.813	C32.269,14.631,31.521,14.44,30.582,14.44z M36.965,14.688c-0.552,0-1,0.448-1,1v8.491c0,1.175,0.196,2.039,0.596,2.592	c0.4,0.552,1.023,0.829,1.866,0.829c1.214,0,2.13-0.587,2.737-1.762h0.059l0.114,0.713c0.078,0.485,0.496,0.842,0.987,0.842h0.387	c0.552,0,1-0.448,1-1V15.688c0-0.552-0.448-1-1-1h-0.858c-0.552,0-1,0.448-1,1v9.094c-0.11,0.235-0.277,0.429-0.506,0.581	c-0.229,0.154-0.464,0.229-0.713,0.229c-0.29,0-0.497-0.119-0.623-0.361s-0.189-0.649-0.189-1.217v-8.326c0-0.552-0.448-1-1-1	H36.965z M30.516,16.406c0.4,0,0.684,0.209,0.843,0.631c0.158,0.42,0.235,1.089,0.235,2.002v3.958c0,0.939-0.077,1.619-0.235,2.033	s-0.44,0.62-0.838,0.623c-0.4,0-0.678-0.209-0.829-0.623c-0.154-0.414-0.229-1.093-0.229-2.033V19.04	c0-0.911,0.077-1.58,0.235-2.002C29.858,16.618,30.129,16.406,30.516,16.406z"/><path fill="#ffa1ac" d="M18.474,34.741h5.208c0.538,0,0.973,0.436,0.973,0.973v0c0,0.538-0.436,0.973-0.973,0.973h-1.425	v11.736c0,0.552-0.448,1-1,1h-0.358c-0.552,0-1-0.448-1-1V36.688h-1.425c-0.538,0-0.973-0.436-0.973-0.973v0	C17.501,35.177,17.936,34.741,18.474,34.741z"/><path fill="#ffa1ac" d="M24.933,38.699h0.42c0.552,0,1,0.448,1,1v6.876c0,0.477,0.053,0.821,0.158,1.023	c0.106,0.205,0.277,0.306,0.524,0.306c0.209,0,0.414-0.064,0.605-0.194c0.194-0.128,0.33-0.293,0.425-0.491v-7.521	c0-0.552,0.448-1,1-1h0.42c0.552,0,1,0.448,1,1l-0.004,8.725c0,0.552-0.448,1-1,1h-0.035c-0.492,0-0.911-0.358-0.988-0.845	l-0.074-0.471h-0.055c-0.515,0.994-1.285,1.492-2.312,1.492c-0.713,0-1.234-0.233-1.573-0.7s-0.51-1.197-0.51-2.187v-7.015	C23.933,39.147,24.381,38.699,24.933,38.699z"/><path fill="#ffa1ac" d="M32.939,34.2h0.325c0.552,0,1,0.448,1,1v4.65h0.018c0.209-0.409,0.508-0.737,0.893-0.988	c0.385-0.251,0.801-0.374,1.245-0.374c0.572,0,1.019,0.152,1.344,0.455c0.326,0.304,0.563,0.794,0.708,1.47	c0.145,0.678,0.216,1.617,0.216,2.818v1.696h0.004c0,1.599-0.196,2.772-0.581,3.524c-0.385,0.752-0.983,1.131-1.8,1.131	c-0.455,0-0.867-0.106-1.241-0.315c-0.374-0.209-0.656-0.497-0.843-0.86l-0.12-0.064l-0.069,0.201	c-0.073,0.49-0.494,0.852-0.989,0.852h-0.11c-0.552,0-1-0.448-1-1L31.939,35.2C31.939,34.648,32.387,34.2,32.939,34.2z M43.047,38.492c0.827,0,1.463,0.152,1.907,0.455c0.442,0.304,0.755,0.779,0.937,1.419c0.18,0.642,0.271,1.529,0.271,2.66v0.839	c0,0.552-0.448,1-1,1h-3.039v0.546c0,0.689,0.018,1.203,0.059,1.547c0.042,0.343,0.125,0.596,0.253,0.752	c0.128,0.158,0.326,0.235,0.594,0.235c0.361,0,0.609-0.141,0.744-0.42c0.066-0.136,0.117-0.317,0.154-0.542	c0.08-0.493,0.552-0.827,1.051-0.791c0.044,0.003,0.089,0.007,0.134,0.01c0.603,0.046,1.025,0.614,0.909,1.208	c-0.125,0.641-0.383,1.125-0.743,1.448c-0.543,0.491-1.307,0.735-2.299,0.735c-1.19,0-2.026-0.376-2.506-1.122	c-0.48-0.746-0.717-1.899-0.717-3.463v-1.874c0-1.61,0.249-2.787,0.744-3.529C40.994,38.864,41.846,38.492,43.047,38.492z M42.994,40.125c-0.257,0-0.449,0.079-0.572,0.229c-0.123,0.152-0.205,0.4-0.244,0.744c-0.042,0.343-0.059,0.865-0.059,1.564v0.77	h1.767v-0.77c0-0.689-0.022-1.208-0.068-1.564c-0.044-0.356-0.13-0.607-0.253-0.752S43.252,40.125,42.994,40.125z M35.334,40.204	c-0.233,0-0.447,0.092-0.645,0.279c-0.198,0.187-0.339,0.427-0.42,0.717v6.09c0.106,0.187,0.244,0.326,0.414,0.42	c0.169,0.092,0.35,0.141,0.55,0.141c0.257,0,0.458-0.092,0.609-0.279c0.152-0.187,0.262-0.502,0.326-0.946	c0.064-0.442,0.095-1.058,0.095-1.839v-1.379c0-0.84-0.024-1.487-0.077-1.943c-0.053-0.455-0.147-0.783-0.279-0.975	C35.772,40.298,35.58,40.204,35.334,40.204z"/><ellipse cx="32" cy="61" opacity=".3" rx="20.125" ry="3"/><path fill="none" stroke="#fff" stroke-linecap="round" stroke-linejoin="round" stroke-miterlimit="10" stroke-width="3" d="M15.468,36.798V34.59c0-0.74,0.66-1.366,1.442-1.366"/></svg>